<?xml version="1.0" standalone="no"?>
<!DOCTYPE svg PUBLIC "-//W3C//DTD SVG 20010904//EN"
 "http://www.w3.org/TR/2001/REC-SVG-20010904/DTD/svg10.dtd">
<svg version="1.0" xmlns="http://www.w3.org/2000/svg"
 width="256.000000pt" height="256.000000pt" viewBox="0 0 256.000000 256.000000"
 preserveAspectRatio="xMidYMid meet">
<metadata>
Created by potrace 1.11, written by Peter Selinger 2001-2013
</metadata>
<g transform="translate(0.000000,256.000000) scale(0.100000,-0.100000)"
fill="#000000" stroke="none">
<path d="M0 1280 l0 -1280 1280 0 1280 0 0 1280 0 1280 -1280 0 -1280 0 0
-1280z m1056 786 c18 -14 19 -33 19 -711 l0 -697 -24 -19 c-33 -27 -139 -27
-172 0 l-24 19 0 581 c0 512 -2 580 -15 576 -56 -16 -66 -16 -85 5 -26 29 -29
151 -4 175 12 13 236 81 275 84 5 1 19 -5 30 -13z m316 -446 c10 -19 40 -143
68 -275 28 -132 54 -247 57 -255 3 -8 10 7 15 35 47 273 92 494 104 513 13 20
22 23 77 20 94 -5 96 -13 53 -235 -181 -925 -182 -929 -227 -987 -59 -75 -196
-89 -259 -26 -25 25 -28 105 -4 139 17 23 47 25 96 6 43 -17 62 108 32 220
-106 409 -198 777 -202 806 -2 20 1 46 8 58 10 20 18 22 88 19 l77 -3 17 -35z"/>
</g>
</svg>
